<?xml version="1.0" encoding="UTF-8"?>
<svg width="115px" height="115px" viewBox="0 0 115 115" version="1.1" xmlns="http://www.w3.org/2000/svg" xmlns:xlink="http://www.w3.org/1999/xlink">
    <!-- Generator: Sketch 48.2 (47327) - http://www.bohemiancoding.com/sketch -->
    <title>icon</title>
    <desc>Created with Sketch.</desc>
    <defs>
        <linearGradient x1="78.6901593%" y1="0%" x2="28.9644282%" y2="100%" id="linearGradient-1">
            <stop stop-color="#D6E8FA" offset="0%"></stop>
            <stop stop-color="#92B8E6" offset="100%"></stop>
        </linearGradient>
        <path d="M12.6629654,14.9685477 L100.662965,5.01921201 C102.309331,4.83307292 103.794869,6.01682004 103.981008,7.6631852 C103.993659,7.77508458 104,7.88760754 104,8.00021984 L104,97.0504445 C104,98.576886 102.853813,99.8599644 101.337035,100.031452 L13.3370346,109.980788 C11.6906695,110.166927 10.2051313,108.98318 10.0189922,107.336815 C10.0063408,107.224915 10,107.112392 10,106.99978 L10,17.9495555 C10,16.423114 11.1461873,15.1400356 12.6629654,14.9685477 Z" id="path-2"></path>
    </defs>
    <g id="Page-1" stroke="none" stroke-width="1" fill="none" fill-rule="evenodd">
        <g id="icon">
            <g id="Rectangle">
                <use fill="#091353" fill-rule="evenodd" xlink:href="#path-2"></use>
                <path stroke="url(#linearGradient-1)" stroke-width="3" d="M12.8314827,16.4590516 C12.0730937,16.5447956 11.5,17.1863348 11.5,17.9495555 L11.5,106.99978 C11.5,107.056086 11.5031704,107.112348 11.5094961,107.168297 C11.6025656,107.99148 12.3453347,108.583354 13.1685173,108.490284 L101.168517,98.5409484 C101.926906,98.4552044 102.5,97.8136652 102.5,97.0504445 L102.5,8.00021984 C102.5,7.94391369 102.49683,7.88765221 102.490504,7.83170252 C102.397434,7.00851994 101.654665,6.41664638 100.831483,6.50971592 L12.8314827,16.4590516 Z"></path>
            </g>
            <path d="M50.68,87 C47.3733168,87 43.9733508,86.3991158 40.48,85.1973294 C36.9866492,83.995543 33.8266808,82.1127725 31,79.5489614 L38.84,70.0949555 C40.706676,71.5905119 42.7199892,72.8056333 44.88,73.7403561 C47.0400108,74.6750789 49.0799904,75.1424332 51,75.1424332 C53.0800104,75.1424332 54.586662,74.8219617 55.52,74.1810089 C56.453338,73.5400561 56.92,72.6320534 56.92,71.4569733 C56.92,70.8160205 56.7600016,70.2819012 56.44,69.8545994 C56.1199984,69.4272976 55.6533364,69.0267081 55.04,68.652819 C54.4266636,68.2789299 53.6933376,67.9183994 52.84,67.5712166 C51.9866624,67.2240339 51.0000056,66.8367974 49.88,66.4094955 L43.4,63.6854599 C42.0133264,63.1513326 40.6800064,62.4436246 39.4,61.5623145 C38.1199936,60.6810045 37.0000048,59.6394719 36.04,58.4376855 C35.0799952,57.235899 34.3200028,55.8605419 33.76,54.3115727 C33.1999972,52.7626035 32.92,51.0534218 32.92,49.1839763 C32.92,46.9406416 33.3999952,44.8442234 34.36,42.8946588 C35.3200048,40.9450941 36.6533248,39.2359124 38.36,37.7670623 C40.0666752,36.2982122 42.1066548,35.1365028 44.48,34.2818991 C46.8533452,33.4272954 49.4533192,33 52.28,33 C55.2666816,33 58.293318,33.5608253 61.36,34.6824926 C64.426682,35.8041599 67.159988,37.5667536 69.56,39.9703264 L62.68,48.6231454 C60.9199912,47.3946526 59.2266748,46.4599439 57.6,45.8189911 C55.9733252,45.1780383 54.2000096,44.8575668 52.28,44.8575668 C50.5733248,44.8575668 49.2400048,45.1513324 48.28,45.7388724 C47.3199952,46.3264124 46.84,47.2077093 46.84,48.3827893 C46.84,49.6112821 47.5199932,50.5593438 48.88,51.227003 C50.2400068,51.8946621 52.119988,52.682488 54.52,53.5905045 L60.84,56.074184 C64.0933496,57.3560895 66.5999912,59.1453891 68.36,61.4421365 C70.1200088,63.7388839 71,66.7032459 71,70.3353116 C71,72.5252335 70.5466712,74.6350047 69.64,76.6646884 C68.7333288,78.6943722 67.413342,80.4703188 65.68,81.9925816 C63.946658,83.5148444 61.8266792,84.7299658 59.32,85.6379822 C56.8133208,86.5459986 53.9333496,87 50.68,87 Z" id="S" fill="#1F2756"></path>
            <path d="M53.68,85 C50.3733168,85 46.9733508,84.3991158 43.48,83.1973294 C39.9866492,81.995543 36.8266808,80.1127725 34,77.5489614 L41.84,68.0949555 C43.706676,69.5905119 45.7199892,70.8056333 47.88,71.7403561 C50.0400108,72.6750789 52.0799904,73.1424332 54,73.1424332 C56.0800104,73.1424332 57.586662,72.8219617 58.52,72.1810089 C59.453338,71.5400561 59.92,70.6320534 59.92,69.4569733 C59.92,68.8160205 59.7600016,68.2819012 59.44,67.8545994 C59.1199984,67.4272976 58.6533364,67.0267081 58.04,66.652819 C57.4266636,66.2789299 56.6933376,65.9183994 55.84,65.5712166 C54.9866624,65.2240339 54.0000056,64.8367974 52.88,64.4094955 L46.4,61.6854599 C45.0133264,61.1513326 43.6800064,60.4436246 42.4,59.5623145 C41.1199936,58.6810045 40.0000048,57.6394719 39.04,56.4376855 C38.0799952,55.235899 37.3200028,53.8605419 36.76,52.3115727 C36.1999972,50.7626035 35.92,49.0534218 35.92,47.1839763 C35.92,44.9406416 36.3999952,42.8442234 37.36,40.8946588 C38.3200048,38.9450941 39.6533248,37.2359124 41.36,35.7670623 C43.0666752,34.2982122 45.1066548,33.1365028 47.48,32.2818991 C49.8533452,31.4272954 52.4533192,31 55.28,31 C58.2666816,31 61.293318,31.5608253 64.36,32.6824926 C67.426682,33.8041599 70.159988,35.5667536 72.56,37.9703264 L65.68,46.6231454 C63.9199912,45.3946526 62.2266748,44.4599439 60.6,43.8189911 C58.9733252,43.1780383 57.2000096,42.8575668 55.28,42.8575668 C53.5733248,42.8575668 52.2400048,43.1513324 51.28,43.7388724 C50.3199952,44.3264124 49.84,45.2077093 49.84,46.3827893 C49.84,47.6112821 50.5199932,48.5593438 51.88,49.227003 C53.2400068,49.8946621 55.119988,50.682488 57.52,51.5905045 L63.84,54.074184 C67.0933496,55.3560895 69.5999912,57.1453891 71.36,59.4421365 C73.1200088,61.7388839 74,64.7032459 74,68.3353116 C74,70.5252335 73.5466712,72.6350047 72.64,74.6646884 C71.7333288,76.6943722 70.413342,78.4703188 68.68,79.9925816 C66.946658,81.5148444 64.8266792,82.7299658 62.32,83.6379822 C59.8133208,84.5459986 56.9333496,85 53.68,85 Z" id="S" fill="#2E3EA5"></path>
            <path d="M57.68,83 C54.3733168,83 50.9733508,82.3991158 47.48,81.1973294 C43.9866492,79.995543 40.8266808,78.1127725 38,75.5489614 L45.84,66.0949555 C47.706676,67.5905119 49.7199892,68.8056333 51.88,69.7403561 C54.0400108,70.6750789 56.0799904,71.1424332 58,71.1424332 C60.0800104,71.1424332 61.586662,70.8219617 62.52,70.1810089 C63.453338,69.5400561 63.92,68.6320534 63.92,67.4569733 C63.92,66.8160205 63.7600016,66.2819012 63.44,65.8545994 C63.1199984,65.4272976 62.6533364,65.0267081 62.04,64.652819 C61.4266636,64.2789299 60.6933376,63.9183994 59.84,63.5712166 C58.9866624,63.2240339 58.0000056,62.8367974 56.88,62.4094955 L50.4,59.6854599 C49.0133264,59.1513326 47.6800064,58.4436246 46.4,57.5623145 C45.1199936,56.6810045 44.0000048,55.6394719 43.04,54.4376855 C42.0799952,53.235899 41.3200028,51.8605419 40.76,50.3115727 C40.1999972,48.7626035 39.92,47.0534218 39.92,45.1839763 C39.92,42.9406416 40.3999952,40.8442234 41.36,38.8946588 C42.3200048,36.9450941 43.6533248,35.2359124 45.36,33.7670623 C47.0666752,32.2982122 49.1066548,31.1365028 51.48,30.2818991 C53.8533452,29.4272954 56.4533192,29 59.28,29 C62.2666816,29 65.293318,29.5608253 68.36,30.6824926 C71.426682,31.8041599 74.159988,33.5667536 76.56,35.9703264 L69.68,44.6231454 C67.9199912,43.3946526 66.2266748,42.4599439 64.6,41.8189911 C62.9733252,41.1780383 61.2000096,40.8575668 59.28,40.8575668 C57.5733248,40.8575668 56.2400048,41.1513324 55.28,41.7388724 C54.3199952,42.3264124 53.84,43.2077093 53.84,44.3827893 C53.84,45.6112821 54.5199932,46.5593438 55.88,47.227003 C57.2400068,47.8946621 59.119988,48.682488 61.52,49.5905045 L67.84,52.074184 C71.0933496,53.3560895 73.5999912,55.1453891 75.36,57.4421365 C77.1200088,59.7388839 78,62.7032459 78,66.3353116 C78,68.5252335 77.5466712,70.6350047 76.64,72.6646884 C75.7333288,74.6943722 74.413342,76.4703188 72.68,77.9925816 C70.946658,79.5148444 68.8266792,80.7299658 66.32,81.6379822 C63.8133208,82.5459986 60.9333496,83 57.68,83 Z" id="S" fill="#F5F9FF"></path>
        </g>
    </g>
</svg>