<?xml version="1.0" encoding="UTF-8"?>
<svg width="40px" height="40px" viewBox="0 0 40 40" version="1.1" xmlns="http://www.w3.org/2000/svg" xmlns:xlink="http://www.w3.org/1999/xlink">
    <!-- Generator: Sketch 48.2 (47327) - http://www.bohemiancoding.com/sketch -->
    <title>basketball</title>
    <desc>Created with Sketch.</desc>
    <defs></defs>
    <g id="Page-1" stroke="none" stroke-width="1" fill="none" fill-rule="evenodd">
        <g id="basketball" transform="translate(-9.000000, -9.000000)" fill="#000000" fill-rule="nonzero">
            <path d="M28.984271,44.9842711 C37.820827,44.9842711 44.984271,37.8208271 44.984271,28.9842711 C44.984271,20.1477151 37.820827,12.9842711 28.984271,12.9842711 C20.147715,12.9842711 12.984271,20.1477151 12.984271,28.9842711 C12.984271,37.8208271 20.147715,44.9842711 28.984271,44.9842711 Z M28.984271,48.9842711 C17.938576,48.9842711 8.98427098,40.0299661 8.98427098,28.9842711 C8.98427098,17.9385761 17.938576,8.98427109 28.984271,8.98427109 C40.029966,8.98427109 48.984271,17.9385761 48.984271,28.9842711 C48.984271,40.0299661 40.029966,48.9842711 28.984271,48.9842711 Z" id="Shape" transform="translate(28.984271, 28.984271) rotate(45.000000) translate(-28.984271, -28.984271) "></path>
            <path d="M22.791883,19.7918829 C22.791883,16.5197045 21.472602,13.4813407 19.2449727,11.2718901 C17.6603011,13.7846735 16.791883,16.7170616 16.791883,19.7918829 C16.791883,22.8667042 17.6603011,25.7990923 19.2449727,28.3118756 C21.472602,26.102425 22.791883,23.0640613 22.791883,19.7918829 Z M12.791883,19.7918829 C12.791883,14.3346693 14.9775686,9.38794996 18.5212981,5.77936647 C23.4525327,8.50528075 26.791883,13.7586083 26.791883,19.7918829 C26.791883,25.8251575 23.4525327,31.078485 18.5212981,33.8043993 C14.9775686,30.1958158 12.791883,25.2490965 12.791883,19.7918829 Z" id="Shape" transform="translate(19.791883, 19.791883) rotate(45.000000) translate(-19.791883, -19.791883) "></path>
            <path d="M41.176659,38.1766593 C41.176659,35.1018381 40.3082409,32.1694499 38.7235693,29.6566666 C36.4959401,31.8661172 35.176659,34.9044809 35.176659,38.1766593 C35.176659,41.4488377 36.4959401,44.4872014 38.7235693,46.6966521 C40.3082409,44.1838687 41.176659,41.2514806 41.176659,38.1766593 Z M31.176659,38.1766593 C31.176659,32.1433847 34.5160094,26.8900572 39.4472439,24.1641429 C42.9909734,27.7727264 45.176659,32.7194457 45.176659,38.1766593 C45.176659,43.6338729 42.9909734,48.5805922 39.4472439,52.1891757 C34.5160094,49.4632614 31.176659,44.2099339 31.176659,38.1766593 Z" id="Shape" transform="translate(38.176659, 38.176659) rotate(45.000000) translate(-38.176659, -38.176659) "></path>
            <path d="M9.12997594,30.3799083 C13.4788399,32.3438549 19.7382362,33.296416 27.9531298,33.296416 C36.1680234,33.296416 42.4274196,32.3438549 46.7762835,30.3799083 L45.129976,26.7344081 C41.3912749,28.4228052 35.6506711,29.296416 27.9531298,29.296416 C20.2555885,29.296416 14.5149846,28.4228052 10.7762835,26.7344081 L9.12997594,30.3799083 Z" id="Shape" transform="translate(27.953130, 30.015412) rotate(45.000000) translate(-27.953130, -30.015412) "></path>
            <polygon id="Shape" transform="translate(29.107622, 29.039078) rotate(45.000000) translate(-29.107622, -29.039078) " points="27.1076224 10.2486791 27.1076224 47.8294767 31.1076224 47.8294767 31.1076224 10.2486791"></polygon>
        </g>
    </g>
</svg>